<svg width="24.000000" height="30.000000" viewBox="0 0 24 30" fill="none" xmlns="http://www.w3.org/2000/svg" xmlns:xlink="http://www.w3.org/1999/xlink">
	<desc>
			Created with Pixso.
	</desc>
	<defs/>
	<path id="Oval 4" d="M21 19.27L17.77 19.27C15.81 19.27 13.98 17.93 12.86 15.69L10.79 11.56C9.67 9.31 7.84 7.97 5.88 7.97L3 7.97" stroke="#000000" stroke-opacity="1.000000" stroke-width="1.000000" stroke-linecap="round"/>
	<path id="Oval 4.1" d="M21 7.97L17.77 7.97C15.81 7.97 13.98 9.45 12.86 11.94L10.79 16.51C9.67 18.99 7.84 20.47 5.88 20.47L3 20.47" stroke="#000000" stroke-opacity="1.000000" stroke-width="1.000000" stroke-linecap="round"/>
	<path id="Path 3" d="M18.63 4.54L18.6 4.53C18.43 4.32 18.46 4.01 18.68 3.83C18.9 3.66 19.21 3.69 19.39 3.91L19.38 3.94L19.01 4.24L22 7.97L19.01 11.71L19.38 12.01L19.39 12.03C19.21 12.25 18.9 12.29 18.68 12.11C18.46 11.94 18.43 11.63 18.6 11.41L18.63 11.41L19 11.7L19 4.25L18.63 4.54Z" fill="#D8D8D8" fill-opacity="0" fill-rule="evenodd"/>
	<path id="Path 3" d="M19 4.22L22 7.97L19 11.72" stroke="#000000" stroke-opacity="1.000000" stroke-width="1.000000" stroke-linecap="round"/>
	<path id="Path 3" d="M18.63 15.79L18.6 15.78C18.43 15.57 18.46 15.26 18.68 15.08C18.9 14.91 19.21 14.94 19.39 15.16L19.38 15.19L19.01 15.49L22 19.22L19.01 22.96L19.38 23.26L19.39 23.28C19.21 23.5 18.9 23.54 18.68 23.36C18.46 23.19 18.43 22.88 18.6 22.66L18.63 22.66L19 22.95L19 15.5L18.63 15.79Z" fill="#D8D8D8" fill-opacity="0" fill-rule="evenodd"/>
	<path id="Path 3" d="M19 15.47L22 19.22L19 22.97" stroke="#000000" stroke-opacity="1.000000" stroke-width="1.000000" stroke-linecap="round"/>
</svg>
