<svg width="25.000000" height="26.000000" viewBox="0 0 25 26" fill="none" xmlns="http://www.w3.org/2000/svg" xmlns:xlink="http://www.w3.org/1999/xlink">
	<desc>
			Created with Pixso.
	</desc>
	<defs/>
	<rect id="Icon/favourite" width="25.000000" height="26.000000" transform="translate(0.000000 -0.872681) rotate(0.000000)" fill="#FFFFFF" fill-opacity="0"/>
	<path id="Shape" d="M12.5 21.87L10.98 20.47C5.62 15.51 2.08 12.23 2.08 8.22C2.08 4.94 4.6 2.37 7.81 2.37C9.62 2.37 11.36 3.23 12.5 4.59C13.63 3.23 15.37 2.37 17.18 2.37C20.39 2.37 22.91 4.94 22.91 8.22C22.91 12.23 19.37 15.51 14.01 20.48L12.5 21.87Z" fill="#0E3FF2" fill-opacity="0" fill-rule="nonzero"/>
	<path id="Shape" d="M10.98 20.47C5.62 15.51 2.08 12.23 2.08 8.22C2.08 4.94 4.6 2.37 7.81 2.37C9.62 2.37 11.36 3.23 12.5 4.59C13.63 3.23 15.37 2.37 17.18 2.37C20.39 2.37 22.91 4.94 22.91 8.22C22.91 12.23 19.37 15.51 14.01 20.48L12.5 21.87L10.98 20.47Z" stroke="#000000" stroke-opacity="1.000000" stroke-width="1.000000"/>
</svg>
