<svg width="28.000000" height="28.000000" viewBox="0 0 28 28" fill="none" xmlns="http://www.w3.org/2000/svg" xmlns:xlink="http://www.w3.org/1999/xlink">
	<desc>
			Created with Pixso.
	</desc>
	<defs/>
	<rect id="Icon/search" width="28.000000" height="28.000000" transform="translate(0.000000 -0.772705) rotate(0.000000)" fill="#FFFFFF" fill-opacity="0"/>
	<path id="Path 5" d="M16.48 16.39L16.46 16.39C16.26 16.19 16.26 15.88 16.46 15.68C16.65 15.48 16.96 15.48 17.16 15.68L17.16 15.71L16.48 16.39ZM23.68 22.2L23.65 22.2L22.97 22.88L22.97 22.91C23.17 23.11 23.48 23.11 23.68 22.91C23.88 22.71 23.88 22.4 23.68 22.2Z" fill="#D8D8D8" fill-opacity="0" fill-rule="evenodd"/>
	<path id="Path 5" d="M16.81 16.04L23.33 22.56" stroke="#000000" stroke-opacity="1.000000" stroke-width="1.000000" stroke-linecap="round"/>
	<path id="Oval" d="M11.66 17.89C15.53 17.89 18.66 14.75 18.66 10.89C18.66 7.02 15.53 3.89 11.66 3.89C7.8 3.89 4.66 7.02 4.66 10.89C4.66 14.75 7.8 17.89 11.66 17.89Z" fill="#D8D8D8" fill-opacity="0" fill-rule="evenodd"/>
	<path id="Oval" d="M18.66 10.89C18.66 7.02 15.53 3.89 11.66 3.89C7.8 3.89 4.66 7.02 4.66 10.89C4.66 14.75 7.8 17.89 11.66 17.89C15.53 17.89 18.66 14.75 18.66 10.89Z" stroke="#000000" stroke-opacity="1.000000" stroke-width="1.000000"/>
</svg>
