<svg width="27.000000" height="29.000000" viewBox="0 0 27 29" fill="none" xmlns="http://www.w3.org/2000/svg" xmlns:xlink="http://www.w3.org/1999/xlink">
	<desc>
			Created with Pixso.
	</desc>
	<defs/>
	<rect id="Icon/bag" width="27.000000" height="29.000000" transform="translate(0.000000 -0.372681) rotate(0.000000)" fill="#FFFFFF" fill-opacity="0"/>
	<rect id="Rectangle 2" x="5.625000" y="8.085693" width="15.750000" height="14.500001" fill="#D8D8D8" fill-opacity="0"/>
	<rect id="Rectangle 2" x="5.625000" y="8.085693" width="15.750000" height="14.500001" stroke="#000000" stroke-opacity="1.000000" stroke-width="1.000000" stroke-linejoin="round"/>
	<path id="Rectangle 2" d="M9 8.58C9.28 8.58 9.5 8.36 9.5 8.08L17.5 8.08C17.5 8.36 17.71 8.58 18 8.58C18.28 8.58 18.5 8.36 18.5 8.08L18.48 8.06L18 8.06C17.98 5.4 15.97 3.25 13.5 3.25C11.02 3.25 9.01 5.4 9 8.06L8.52 8.06L8.5 8.08C8.5 8.36 8.71 8.58 9 8.58Z" fill="#D8D8D8" fill-opacity="0" fill-rule="evenodd"/>
	<path id="Rectangle 2" d="M9 8.08C9 5.41 11.01 3.25 13.5 3.25C15.98 3.25 18 5.41 18 8.08" stroke="#000000" stroke-opacity="1.000000" stroke-width="1.000000" stroke-linejoin="round" stroke-linecap="round"/>
</svg>
