<svg width="27.000000" height="26.000000" viewBox="0 0 27 26" fill="none" xmlns="http://www.w3.org/2000/svg" xmlns:xlink="http://www.w3.org/1999/xlink">
	<desc>
			Created with Pixso.
	</desc>
	<defs/>
	<path id="Vector" d="M7.59 -0.78C3.29 -0.78 -0.21 2.72 -0.21 7.02L-0.21 17.82C-0.21 22.12 3.29 25.62 7.59 25.62L18.4 25.62C22.7 25.62 26.2 22.12 26.2 17.82L26.2 7.02C26.2 2.72 22.7 -0.78 18.4 -0.78L7.59 -0.78ZM7.59 0.42L18.4 0.42C22.05 0.42 25 3.37 25 7.02L25 17.82C25 21.47 22.05 24.42 18.4 24.42L7.59 24.42C3.94 24.42 0.99 21.47 0.99 17.82L0.99 7.02C0.99 3.37 3.94 0.42 7.59 0.42ZM20.2 4.02C19.88 4.02 19.57 4.15 19.35 4.37C19.12 4.6 19 4.9 19 5.22C19 5.54 19.12 5.85 19.35 6.07C19.57 6.3 19.88 6.42 20.2 6.42C20.51 6.42 20.82 6.3 21.04 6.07C21.27 5.85 21.4 5.54 21.4 5.22C21.4 4.9 21.27 4.6 21.04 4.37C20.82 4.15 20.51 4.02 20.2 4.02ZM13 5.82C9.36 5.82 6.39 8.78 6.39 12.42C6.39 16.06 9.36 19.02 13 19.02C16.63 19.02 19.6 16.06 19.6 12.42C19.6 8.78 16.63 5.82 13 5.82ZM13 7.02C15.98 7.02 18.4 9.43 18.4 12.42C18.4 15.41 15.98 17.82 13 17.82C10.01 17.82 7.59 15.41 7.59 12.42C7.59 9.43 10.01 7.02 13 7.02Z" fill="#FFFFFF" fill-opacity="1.000000" fill-rule="nonzero"/>
</svg>
