<svg width="21.000000" height="21.000000" viewBox="0 0 21 21" fill="none" xmlns="http://www.w3.org/2000/svg" xmlns:xlink="http://www.w3.org/1999/xlink">
	<desc>
			Created with Pixso.
	</desc>
	<defs/>
	<path id="Path 16" d="M10.86 17.27L13.95 14.18C14.29 13.83 14.83 13.78 15.23 14.06L19.65 17.14C20.16 17.5 20.22 18.23 19.78 18.67L19 19.45C18.29 20.16 17.27 20.47 16.31 20.17C13.97 19.44 9.4 17.65 5.63 13.88C1.87 10.12 0.07 5.55 -0.66 3.2C-0.95 2.24 -0.65 1.22 0.06 0.51L0.84 -0.27C1.28 -0.71 2.01 -0.64 2.37 -0.13L5.45 4.29C5.73 4.68 5.68 5.22 5.34 5.57L2.25 8.66L10.86 17.27Z" fill="#FFFFFF" fill-opacity="1.000000" fill-rule="evenodd"/>
</svg>
