<svg width="31.000000" height="25.000000" viewBox="0 0 31 25" fill="none" xmlns="http://www.w3.org/2000/svg" xmlns:xlink="http://www.w3.org/1999/xlink">
	<desc>
			Created with Pixso.
	</desc>
	<defs/>
	<path id="Vector" d="M20.53 -0.3C16.94 -0.3 14.02 2.62 14.02 6.21C14.02 6.43 14.07 6.64 14.1 6.85C9.66 6.42 5.73 4.29 3.07 1.02C2.95 0.86 2.75 0.77 2.55 0.79C2.35 0.8 2.17 0.92 2.08 1.09C1.52 2.05 1.19 3.16 1.19 4.35C1.19 5.79 1.71 7.11 2.51 8.2C2.35 8.13 2.18 8.09 2.04 8.01C1.85 7.91 1.63 7.92 1.45 8.02C1.27 8.13 1.16 8.33 1.16 8.53L1.16 8.61C1.16 10.82 2.3 12.74 3.99 13.92C3.97 13.91 3.95 13.92 3.93 13.92C3.73 13.88 3.52 13.95 3.38 14.11C3.24 14.27 3.2 14.49 3.26 14.68C3.93 16.77 5.64 18.36 7.76 18.94C6.07 19.94 4.11 20.53 2 20.53C1.54 20.53 1.11 20.51 0.67 20.46C0.39 20.42 0.12 20.59 0.03 20.85C-0.07 21.12 0.03 21.42 0.28 21.57C2.98 23.3 6.2 24.32 9.65 24.32C15.25 24.32 19.64 21.98 22.59 18.64C25.53 15.3 27.07 10.96 27.07 6.9C27.07 6.73 27.06 6.57 27.05 6.4C28.15 5.56 29.13 4.57 29.9 3.42C30.05 3.19 30.04 2.9 29.86 2.69C29.69 2.48 29.4 2.42 29.15 2.53C28.84 2.67 28.48 2.69 28.16 2.8C28.58 2.23 28.95 1.61 29.17 0.92C29.25 0.69 29.16 0.43 28.97 0.27C28.77 0.12 28.5 0.1 28.29 0.23C27.26 0.84 26.13 1.26 24.93 1.52C23.77 0.43 22.24 -0.3 20.53 -0.3ZM20.53 0.9C22.06 0.9 23.44 1.56 24.41 2.59C24.55 2.74 24.77 2.8 24.97 2.76C25.75 2.61 26.5 2.38 27.22 2.08C26.8 2.65 26.29 3.13 25.68 3.49C25.41 3.62 25.28 3.94 25.38 4.23C25.48 4.52 25.78 4.68 26.08 4.62C26.68 4.54 27.21 4.3 27.78 4.15C27.27 4.7 26.71 5.2 26.1 5.65C25.93 5.77 25.84 5.97 25.85 6.17C25.86 6.42 25.87 6.66 25.87 6.9C25.87 10.65 24.43 14.72 21.69 17.83C18.95 20.95 14.92 23.12 9.65 23.12C7.26 23.12 5 22.59 2.96 21.66C5.49 21.47 7.82 20.57 9.71 19.09C9.9 18.93 9.98 18.67 9.9 18.43C9.82 18.19 9.6 18.03 9.35 18.02C7.37 17.99 5.72 16.84 4.83 15.21C4.87 15.21 4.89 15.21 4.93 15.21C5.52 15.21 6.11 15.13 6.65 14.98C6.91 14.91 7.09 14.66 7.08 14.39C7.08 14.12 6.88 13.88 6.61 13.82C4.48 13.39 2.88 11.65 2.51 9.49C3.11 9.7 3.73 9.86 4.4 9.88C4.68 9.9 4.92 9.73 5.01 9.47C5.09 9.21 4.99 8.92 4.76 8.78C3.33 7.82 2.39 6.2 2.39 4.35C2.39 3.67 2.57 3.04 2.81 2.44C5.81 5.73 10.01 7.92 14.75 8.16C14.94 8.17 15.12 8.09 15.24 7.95C15.37 7.8 15.41 7.61 15.37 7.43C15.28 7.04 15.22 6.63 15.22 6.21C15.22 3.27 17.59 0.9 20.53 0.9Z" fill="#FFFFFF" fill-opacity="1.000000" fill-rule="nonzero"/>
</svg>
