<svg width="29.000000" height="22.000000" viewBox="0 0 29 22" fill="none" xmlns="http://www.w3.org/2000/svg" xmlns:xlink="http://www.w3.org/1999/xlink">
	<desc>
			Created with Pixso.
	</desc>
	<defs/>
	<path id="Vector" d="M13.59 -0.46C9.1 -0.46 4.88 -0.12 2.64 0.36C1.14 0.7 -0.15 1.72 -0.42 3.28C-0.69 4.91 -0.97 7.36 -0.97 10.42C-0.97 13.48 -0.69 15.86 -0.35 17.56C-0.08 19.06 1.21 20.15 2.71 20.49C5.09 20.96 9.17 21.3 13.66 21.3C18.14 21.3 22.22 20.96 24.6 20.49C26.1 20.15 27.39 19.13 27.66 17.56C27.94 15.86 28.28 13.42 28.34 10.36C28.34 7.3 28 4.85 27.66 3.15C27.39 1.65 26.1 0.56 24.6 0.22C22.22 -0.12 18.08 -0.46 13.59 -0.46ZM13.59 0.9C18.48 0.9 22.43 1.31 24.33 1.65C25.35 1.92 26.17 2.6 26.3 3.49C26.71 5.66 26.98 7.98 26.98 10.36C26.92 13.28 26.58 15.66 26.3 17.36C26.1 18.65 24.74 19.06 24.33 19.2C21.88 19.67 17.8 20.01 13.72 20.01C9.64 20.01 5.49 19.74 3.11 19.2C2.09 18.92 1.28 18.24 1.14 17.36C0.6 15.45 0.39 12.94 0.39 10.42C0.39 7.29 0.67 4.98 0.94 3.56C1.14 2.26 2.57 1.85 2.91 1.72C5.15 1.24 9.3 0.9 13.59 0.9ZM9.91 4.98L9.91 15.86L19.44 10.42L9.91 4.98ZM11.28 7.3L16.71 10.42L11.28 13.55L11.28 7.3Z" fill="#FFFFFF" fill-opacity="1.000000" fill-rule="nonzero"/>
</svg>
